Coordinates
version=1
nRows=19
nColumns=34
inDegrees=yes

Units are S.I. units (second, meters, Newtons, ...)
If the header above contains a line with 'inDegrees', this indicates whether rotational values are in degrees (yes) or radians (no).

endheader
time	pelvis_tilt	pelvis_list	pelvis_rotation	pelvis_tx	pelvis_ty	pelvis_tz	hip_flexion_r	hip_adduction_r	hip_rotation_r	knee_angle_r	ankle_angle_r	subtalar_angle_r	mtp_angle_r	hip_flexion_l	hip_adduction_l	hip_rotation_l	knee_angle_l	ankle_angle_l	subtalar_angle_l	mtp_angle_l	lumbar_extension	lumbar_bending	lumbar_rotation	arm_flex_r	arm_add_r	arm_rot_r	elbow_flex_r	pro_sup_r	arm_flex_l	arm_add_l	arm_rot_l	elbow_flex_l	pro_sup_l
      2.38333330	     -4.90446961	     -1.96042924	      5.68003538	      0.42346942	      1.15578187	     -0.05175389	     19.64351832	     -5.35892054	     -9.18819508	     36.57152558	    -12.99859165	    -27.29037992	      0.00000000	     17.20326838	     -5.56551985	     -5.69069332	     33.83405693	     -2.99620619	    -20.57951405	      0.00000000	    -13.71414140	      1.02621432	     -4.08847047	    -27.83320027	    -50.84436474	     -8.58961732	    127.54342092	     92.62234870	    -16.49970598	    -46.78418396	    -16.56356104	    142.87109560	     91.06398922
      2.40000000	     -4.89878060	     -2.12725809	      5.61666257	      0.43901930	      1.14100036	     -0.05517298	     20.41376137	     -4.98630483	     -9.70437387	     32.82946674	    -12.65722092	    -24.22113206	      0.00000000	     17.54319570	     -5.87328860	     -6.06535373	     29.94719936	     -4.10795873	    -16.24520877	      0.00000000	    -14.24347481	      1.40255215	     -4.18470652	    -27.86043552	    -54.65751726	     -8.80181855	    127.78246283	     91.95674739	    -15.60905201	    -48.34711142	    -15.66760846	    141.71302186	     90.30102699
      2.41666670	     -5.02399687	     -2.02029271	      5.02569133	      0.45518713	      1.12171278	     -0.05968297	     20.79568695	     -4.91837822	    -10.17159184	     28.22089494	    -14.00153992	    -22.09671727	      0.00000000	     17.50543937	     -5.74717156	     -6.84158874	     25.53258468	     -6.22985795	    -13.72992663	      0.00000000	    -14.29900208	      1.75356066	     -3.85898412	    -28.60668875	    -58.88615443	     -9.86384562	    127.66020095	     91.59772121	    -16.85121771	    -48.78065506	    -15.22241213	    140.71816138	     89.98231660
      2.43333330	     -4.74307651	     -2.12037141	      4.92683508	      0.46749272	      1.10042582	     -0.06251135	     20.36265002	     -4.72217002	    -11.11069846	     23.39694959	    -14.26182981	    -17.19831801	      0.00000000	     17.42368172	     -6.02346819	     -7.42756517	     21.43479743	     -8.58196563	    -10.73989997	      0.00000000	    -15.28520286	      2.43131180	     -4.29266174	    -28.27230349	    -63.27367291	     -9.72135855	    128.03102679	     90.72044609	    -14.37274370	    -50.92232218	    -13.25482926	    140.35922438	     89.33984519
      2.45000000	     -4.32302308	     -2.16308278	      4.64360465	      0.48389235	      1.07106026	     -0.06387877	     20.31705731	     -4.65505489	    -11.56547276	     19.80453588	    -15.28442826	    -13.55635013	      0.00000000	     17.44986549	     -6.44335383	     -8.29171968	     18.15307983	    -11.01088989	     -8.68547098	      0.00000000	    -15.96480453	      2.76403885	     -4.29543876	    -27.10371540	    -68.03677009	     -8.58178413	    127.97607131	     89.20401168	     -9.22337743	    -54.07433179	     -7.52826873	    140.20039772	     88.82527946
      2.46666670	     -4.73154346	     -1.87243210	      4.60602943	      0.50175625	      1.03810462	     -0.06640128	     21.22800313	     -4.99853918	    -11.36435286	     16.86762914	    -16.28959252	    -11.20037763	      0.00000000	     18.55207096	     -6.49256750	     -9.09686066	     15.42014023	    -14.62485618	     -8.95055302	      0.00000000	    -14.77779875	      2.40388936	     -3.33049357	    -28.50886776	    -71.52621507	     -9.54153132	    126.40585260	     84.86891998	     -0.65936709	    -56.76979060	      1.79942741	    138.42291884	     87.72498541
      2.48333330	     -4.84009619	     -1.68081589	      4.09969850	      0.51330476	      1.00867095	     -0.06728750	     22.42734248	     -5.03553911	    -11.50128856	     14.65276427	    -18.36793615	     -9.81362792	      0.00000000	     19.82872175	     -6.84851465	    -10.13814962	     13.67302889	    -17.58413925	     -8.34123467	      0.00000000	    -15.77044721	      2.42188248	     -3.74474999	    -28.42254416	    -75.21497502	    -10.79293796	    126.86712042	     84.58774752	      0.67678071	    -58.36814775	      2.13554953	    138.99949865	     87.65094433
      2.50000000	     -4.83448265	     -1.70189081	      4.20409183	      0.52854707	      0.97394107	     -0.06990003	     23.56364473	     -5.16661584	    -11.93798356	     13.43672685	    -19.60731435	     -7.67238024	      0.00000000	     21.24986600	     -7.17415723	     -9.68428458	     12.38045359	    -20.84592491	     -9.93751575	      0.00000000	    -16.06560294	      2.65512190	     -3.79795493	    -29.68245398	    -77.90877537	    -13.52105626	    126.69035145	     81.93939240	      6.77533601	    -58.87021002	      6.31092098	    136.57454412	     86.77587701
      2.51666670	     -4.73328541	     -1.68843372	      4.05807467	      0.54588260	      0.93588576	     -0.07347213	     24.89961812	     -5.29505833	    -11.68566058	     14.03232041	    -19.38538858	     -5.14268831	      0.00000000	     22.59669598	     -7.71819124	     -9.66696771	     11.95275541	    -21.56914833	     -9.86284801	      0.00000000	    -16.34139911	      2.70042818	     -3.67091884	    -32.04834412	    -79.81321844	    -17.05599720	    126.36080805	     79.17189496	     14.19232432	    -58.83475473	     11.98260821	    133.74053107	     85.34886468
      2.53333330	     -4.87974033	     -1.43254478	      3.92007618	      0.56067425	      0.89826006	     -0.07307650	     27.54843397	     -5.61868450	    -10.90585899	     18.92581606	    -16.22931654	     -6.37040381	      0.00000000	     24.92538979	     -7.92230402	     -8.27213756	     13.51960489	    -22.23141498	    -14.80837257	      0.00000000	    -17.45567002	      2.15104897	     -3.46222941	    -31.24837963	    -80.15107798	    -18.76099182	    125.61059763	     78.64251760	     21.51194189	    -58.88501388	     17.56198566	    132.21303347	     85.00228800
      2.55000000	     -4.99399900	     -0.85586660	      4.05794103	      0.56838887	      0.86431176	     -0.07770933	     31.53138681	     -7.01040196	    -10.70894321	     26.87794280	    -10.05200982	     -6.58510075	      0.00000000	     29.15714903	     -7.66736234	     -6.10745403	     19.56478262	    -21.75687984	    -21.62224819	      0.00000000	    -18.89857651	      1.12564602	     -2.44976986	    -29.71139067	    -79.82311994	    -19.84209520	    123.44531141	     78.27163679	     34.01976980	    -56.58847833	     26.55899489	    127.47602453	     84.31555382
      2.56666670	     -5.41726316	     -0.59704004	      3.82495169	      0.58116582	      0.82555647	     -0.08347738	     37.59408282	     -8.60926865	    -10.14483064	     37.43359887	     -3.65005868	     -7.65892572	      0.00000000	     35.31857447	     -7.23615422	     -2.85742583	     29.26582385	    -19.28228501	    -28.50905426	      0.00000000	    -20.86142789	      0.82363990	     -2.42827452	    -27.29754794	    -79.70705218	    -21.32089090	    124.25397606	     78.13759093	     39.85664538	    -54.98012178	     29.49470820	    124.65525976	     83.91174376
      2.58333330	     -4.43489063	     -0.41720218	      3.52022720	      0.58641773	      0.79575544	     -0.08693498	     43.57601354	    -10.44866549	    -10.01047511	     49.70906125	      0.88106380	    -10.38413086	      0.00000000	     40.94866303	     -6.74282143	     -1.42196673	     41.25553697	    -15.09690681	    -35.00000000	      0.00000000	    -22.72077113	      0.81653076	      0.29217416	    -25.20267749	    -80.39064218	    -23.32785313	    121.24795147	     77.74615160	     47.93827713	    -48.66798638	     33.06908093	    116.83305977	     82.55952716
      2.60000000	     -3.86169599	     -0.84010373	      3.62053400	      0.59043131	      0.75685121	     -0.09495877	     50.53803904	    -12.15730544	     -9.36973729	     62.50790346	      5.85775315	    -12.94737081	      0.00000000	     48.67017266	     -6.55316361	      0.00508248	     56.02400462	     -5.50245808	    -35.00000000	      0.00000000	    -25.35171549	      2.17408589	      1.46905985	    -22.64721550	    -81.82802660	    -25.56322348	    121.79417216	     77.57683649	     51.90617870	    -43.77677266	     31.51890078	    111.85040224	     81.77158957
      2.61666670	     -2.40242698	     -1.11651788	      4.11001284	      0.59994095	      0.72625941	     -0.09301188	     54.96288196	    -13.12096483	     -8.23088740	     73.26905452	     11.02203592	    -15.26874096	      0.00000000	     54.44951215	     -6.73800916	      1.20350345	     69.18825722	      1.73959242	    -35.00000000	      0.00000000	    -29.74359495	      2.64713991	      3.99027928	    -19.44751021	    -80.91774755	    -27.31417040	    121.91619492	     77.61121301	     57.26044415	    -36.15448210	     31.23864566	    105.84842100	     80.63604370
      2.63333330	     -0.89033136	     -1.53170510	      4.82119369	      0.61246708	      0.69546288	     -0.09352870	     57.73777070	    -13.52631351	     -7.47407976	     81.90980245	     16.04358651	    -17.02755832	      0.00000000	     58.70175421	     -7.45941444	      2.47656869	     79.90409956	      5.93471413	    -35.00000000	      0.00000000	    -34.73780261	      2.89877308	      5.49089923	    -15.94081890	    -79.05862853	    -29.01459359	    123.61669923	     77.67822037	     61.30566875	    -29.86058165	     30.10443305	    102.77718827	     79.99234594
      2.65000000	      0.09079569	     -1.64396184	      5.28355622	      0.61758370	      0.66414101	     -0.09782235	     60.75584231	    -14.12195142	     -6.64771522	     89.13355039	     19.81748575	    -18.13358191	      0.00000000	     62.66693497	     -7.83330702	      3.24772466	     88.71156509	      8.93280034	    -35.00000000	      0.00000000	    -39.01865125	      1.83175220	      6.40360417	    -10.19221211	    -76.24167605	    -27.97074914	    124.17600091	     78.61373978	     67.29547531	    -23.87839143	     31.44242383	     99.22100448	     77.74995817
      2.66666670	      0.54585977	     -1.38136088	      5.70728602	      0.61930676	      0.63363765	     -0.10551921	     64.14518025	    -15.35884741	     -5.32560889	     95.26761575	     23.09651940	    -18.31184608	      0.00000000	     66.31298883	     -7.82271496	      3.24275545	     95.57541482	     11.76764945	    -35.00000000	      0.00000000	    -41.64042756	      1.57983215	      1.40372342	     24.94835761	    -69.10430262	      3.70517635	    122.47679207	     88.58987203	     68.09775091	    -24.96003149	     28.06246221	    102.14322385	     67.47166890
      2.68333330	      0.24396339	     -1.39486347	      6.36558166	      0.63073859	      0.60739867	     -0.10454988	     67.04446921	    -16.65172877	     -4.22409531	    100.52349452	     26.45756821	    -17.60479649	      0.00000000	     69.70966810	     -7.91725112	      3.76079987	    100.99352550	     13.63170604	    -35.00000000	      0.00000000	    -44.34680105	      1.01912402	      1.03149814	     27.47065657	    -62.50950094	      4.05026854	    125.00799864	     88.06497309	     71.27799789	    -21.12674688	     27.88596085	    103.50749839	     68.27356612
